<?xml version="1.0" encoding="utf-8"?>
<!-- Generator: Adobe Illustrator 18.1.1, SVG Export Plug-In . SVG Version: 6.00 Build 0)  -->
<!DOCTYPE svg PUBLIC "-//W3C//DTD SVG 1.1//EN" "http://www.w3.org/Graphics/SVG/1.1/DTD/svg11.dtd">
<svg version="1.1" id="Ebene_1" xmlns="http://www.w3.org/2000/svg" xmlns:xlink="http://www.w3.org/1999/xlink" x="0px" y="0px"
	 viewBox="0 0 80.778 79.371" style="enable-background:new 0 0 80.778 79.371;" xml:space="preserve">
<g>
	<path style="fill:#FFFFFF;" d="M10.7202,79.1689l-2.9199-9.0254h2.0352l2.0098,6.3457h0.0254l2.0352-6.3457h2.0469l-2.9951,9.0254
		H10.7202z"/>
	<path style="fill:#FFFFFF;" d="M18.7963,70.1435v7.3564h4.3994v1.6689H16.812v-9.0254H18.7963z"/>
	<path style="fill:#FFFFFF;" d="M26.2162,70.1435v9.0254h-1.9844v-9.0254H26.2162z"/>
	<path style="fill:#FFFFFF;" d="M33.3198,79.0995c-0.4297,0.1807-0.8633,0.2715-1.3018,0.2715
		c-0.6904,0-1.3125-0.1201-1.8643-0.3604c-0.5527-0.2402-1.0176-0.5703-1.3965-0.9922c-0.3789-0.4209-0.6699-0.916-0.873-1.4854
		c-0.2012-0.5684-0.3027-1.1816-0.3027-1.8389c0-0.6738,0.1016-1.2998,0.3027-1.877c0.2031-0.5771,0.4941-1.0811,0.873-1.5107
		s0.8438-0.7666,1.3965-1.0107c0.5518-0.2441,1.1738-0.3672,1.8643-0.3672c0.4639,0,0.9121,0.0703,1.3467,0.209
		c0.4336,0.1387,0.8252,0.3438,1.1748,0.6133s0.6387,0.6025,0.8662,0.998c0.2275,0.3965,0.3662,0.8516,0.417,1.3652h-1.8955
		c-0.1191-0.5059-0.3457-0.8848-0.6836-1.1377c-0.3369-0.2529-0.7451-0.3789-1.2256-0.3789c-0.4463,0-0.8262,0.0869-1.1377,0.2588
		c-0.3125,0.1729-0.5645,0.4043-0.7578,0.6953c-0.1943,0.291-0.3359,0.6221-0.4238,0.9922
		c-0.0879,0.3711-0.1328,0.7549-0.1328,1.1504c0,0.3789,0.0449,0.748,0.1328,1.1064c0.0879,0.3574,0.2295,0.6807,0.4238,0.9668
		c0.1934,0.2861,0.4453,0.5156,0.7578,0.6885c0.3115,0.1729,0.6914,0.2598,1.1377,0.2598c0.6572,0,1.165-0.167,1.5225-0.5
		c0.3594-0.333,0.5674-0.8154,0.627-1.4473h-1.998V74.29h3.793v4.8789h-1.2646l-0.2021-1.0234
		C34.142,78.6005,33.7495,78.9179,33.3198,79.0995z"/>
	<path style="fill:#FFFFFF;" d="M39.6147,70.1435v3.4639h3.6523v-3.4639h1.9844v9.0254H43.267v-3.8936h-3.6523v3.8936h-1.9844
		v-9.0254H39.6147z"/>
	<path style="fill:#FFFFFF;" d="M46.2631,71.8124v-1.6689h7.3945v1.6689h-2.7051v7.3564h-1.9844v-7.3564H46.2631z"/>
	<path style="fill:#FFFFFF;" d="M55.6674,77.2226v1.9463H53.683v-1.9463H55.6674z"/>
</g>
<g>
	<path style="fill:#FFFFFF;" d="M55.6928,71.8124v-1.6689h7.3945v1.6689h-2.7051v7.3564h-1.9844v-7.3564H55.6928z"/>
</g>
<g>
	<path style="fill:#FFFFFF;" d="M63.8334,72.8173c0.2031-0.5771,0.4932-1.0811,0.873-1.5107
		c0.3789-0.4297,0.8447-0.7666,1.3965-1.0107s1.1729-0.3672,1.8643-0.3672c0.6992,0,1.3232,0.123,1.8711,0.3672
		c0.5469,0.2441,1.0107,0.5811,1.3896,1.0107c0.3799,0.4297,0.6699,0.9336,0.8721,1.5107c0.2031,0.5771,0.3037,1.2031,0.3037,1.877
		c0,0.6572-0.1006,1.2705-0.3037,1.8389c-0.2021,0.5693-0.4922,1.0645-0.8721,1.4854c-0.3789,0.4219-0.8428,0.752-1.3896,0.9922
		c-0.5479,0.2402-1.1719,0.3604-1.8711,0.3604c-0.6914,0-1.3125-0.1201-1.8643-0.3604s-1.0176-0.5703-1.3965-0.9922
		c-0.3799-0.4209-0.6699-0.916-0.873-1.4854c-0.2021-0.5684-0.3027-1.1816-0.3027-1.8389
		C63.5307,74.0204,63.6313,73.3945,63.8334,72.8173z M65.6479,75.8007c0.0879,0.3574,0.2295,0.6807,0.4229,0.9668
		c0.1943,0.2861,0.4473,0.5156,0.7588,0.6885s0.6914,0.2598,1.1377,0.2598s0.8262-0.0869,1.1377-0.2598s0.5645-0.4023,0.7578-0.6885
		c0.1943-0.2861,0.335-0.6094,0.4238-0.9668c0.0889-0.3584,0.1328-0.7275,0.1328-1.1064c0-0.3955-0.0439-0.7793-0.1328-1.1504
		c-0.0889-0.3701-0.2295-0.7012-0.4238-0.9922c-0.1934-0.291-0.4463-0.5225-0.7578-0.6953
		c-0.3115-0.1719-0.6914-0.2588-1.1377-0.2588s-0.8262,0.0869-1.1377,0.2588c-0.3115,0.1729-0.5645,0.4043-0.7588,0.6953
		c-0.1934,0.291-0.335,0.6221-0.4229,0.9922c-0.0889,0.3711-0.1328,0.7549-0.1328,1.1504
		C65.5151,75.0732,65.559,75.4423,65.6479,75.8007z"/>
</g>
<g>
	<path style="fill:#FFFFFF;" d="M49.767,47.38l-1.81-0.411l-0.411,1.069c-0.768,1.865-1.659,3.058-2.674,3.579
		c-1.014,0.52-2.618,0.781-4.812,0.781c-1.974,0-3.455-0.274-4.442-0.823c-0.987-0.548-1.837-1.726-2.55-3.537l-0.411-1.069
		l-1.81,0.411l1.234,4.936l3.044,2.55c1.041,2.084,2.769,3.126,5.182,3.126s4.141-1.042,5.182-3.126l3.043-2.55L49.767,47.38z
		 M37.346,33.561c0,3.4-1.399,5.1-4.196,5.1c-2.741,0-4.112-1.59-4.112-4.771c0-3.016,1.425-4.524,4.277-4.524
		C36.002,29.366,37.346,30.764,37.346,33.561 M43.432,42.609c0,1.097-0.602,1.645-1.809,1.646c-0.384,0-0.767-0.138-1.152-0.412
		c-0.439,0.274-0.85,0.411-1.233,0.412c-1.207,0-1.81-0.549-1.81-1.646c0-0.329,0.329-0.959,0.987-1.892
		c0.493-0.657,0.987-1.316,1.48-1.974c0.165-0.274,0.357-0.548,0.576-0.822c0,0.054,0.549,0.85,1.645,2.385
		C42.994,41.512,43.432,42.28,43.432,42.609 M80.778,13.243c0,3.674-1.289,6.8-3.866,9.377c-2.577,2.578-5.703,3.867-9.378,3.867
		c-2.357,0-4.661-0.686-6.909-2.057c3.619,4.607,5.429,9.871,5.429,15.794c0,7.074-2.496,13.106-7.486,18.097
		c-4.99,4.99-10.995,7.485-18.014,7.485c-7.074,0-13.107-2.495-18.097-7.485c-4.991-4.991-7.486-11.023-7.486-18.097
		c0-6.032,1.837-11.324,5.511-15.876c-2.193,1.426-4.606,2.139-7.238,2.139c-3.675,0-6.8-1.289-9.378-3.867
		C1.289,20.043,0,16.917,0,13.243c0-3.674,1.289-6.8,3.866-9.377S9.569,0,13.244,0c3.674,0,6.8,1.289,9.377,3.866
		c2.578,2.578,3.866,5.704,3.866,9.379c0,1.645-0.219,2.988-0.658,4.03c-1.864,2.359-2.796,5.211-2.796,8.557
		c0,3.784,0.521,6.554,1.564,8.309c1.317,2.248,2.031,3.784,2.141,4.606l0.658,4.196l6.918,3.291l0.978,2.543
		c1.371,0.44,3.073,0.66,5.104,0.66c2.139,0,3.84-0.218,5.102-0.655l0.982-2.555l6.907-3.29l0.659-4.195
		c0.164-0.823,0.328-1.399,0.493-1.727c2.083-3.675,3.124-7.404,3.124-11.187c0-3.564-0.932-6.47-2.796-8.719
		c-0.384-0.712-0.576-2.001-0.576-3.866c0-3.674,1.289-6.8,3.866-9.377C60.735,1.289,63.86,0,67.534,0
		c3.675,0,6.801,1.289,9.378,3.866C79.489,6.443,80.778,9.569,80.778,13.243"/>
</g>
<g>
	<path style="fill:#FF0099;" d="M51.9874,33.5608c0,3.4-1.371,5.1-4.113,5.1c-2.797,0-4.195-1.59-4.195-4.771
		c0-3.016,1.426-4.524,4.277-4.524C50.6434,29.3658,51.9874,30.7638,51.9874,33.5608"/>
</g>
</svg>
